<svg width="1280" height="720" viewBox="0 0 1280 720" fill="none" xmlns="http://www.w3.org/2000/svg">
  <defs>
    <linearGradient id="bg" x1="88" y1="48" x2="1192" y2="672" gradientUnits="userSpaceOnUse">
      <stop stop-color="#F8FAFC"/>
      <stop offset="1" stop-color="#EEF4FF"/>
    </linearGradient>
    <linearGradient id="hero" x1="0" y1="0" x2="1" y2="1">
      <stop stop-color="#1E40AF"/>
      <stop offset="1" stop-color="#3B82F6"/>
    </linearGradient>
    <linearGradient id="amber" x1="0" y1="0" x2="1" y2="1">
      <stop stop-color="#F59E0B"/>
      <stop offset="1" stop-color="#FB923C"/>
    </linearGradient>
    <filter id="shadow" x="0" y="0" width="1280" height="720" filterUnits="userSpaceOnUse" color-interpolation-filters="sRGB">
      <feDropShadow dx="0" dy="16" stdDeviation="18" flood-color="#0F172A" flood-opacity="0.08"/>
    </filter>
  </defs>

  <rect width="1280" height="720" rx="32" fill="#F3F7FC"/>
  <g filter="url(#shadow)">
    <rect x="40" y="32" width="1200" height="656" rx="30" fill="url(#bg)"/>
  </g>

  <rect x="72" y="64" width="1136" height="126" rx="28" fill="url(#hero)"/>
  <text x="108" y="116" fill="white" font-family="Inter, Arial, sans-serif" font-size="18" font-weight="600">AI Intelligence Hub</text>
  <text x="108" y="156" fill="white" font-family="Inter, Arial, sans-serif" font-size="40" font-weight="700">How the dashboard turns noisy AI feeds into daily decisions</text>
  <text x="108" y="184" fill="#DBEAFE" font-family="Inter, Arial, sans-serif" font-size="17">Curated collection, signal scoring, trust visibility, and a live dashboard loop for continuous updates.</text>

  <rect x="1010" y="92" width="82" height="34" rx="17" fill="rgba(255,255,255,0.16)"/>
  <text x="1035" y="114" fill="white" font-family="Inter, Arial, sans-serif" font-size="14" font-weight="600">MIT</text>
  <rect x="1104" y="92" width="72" height="34" rx="17" fill="rgba(255,255,255,0.16)"/>
  <circle cx="1127" cy="109" r="5" fill="#86EFAC"/>
  <text x="1140" y="114" fill="white" font-family="Inter, Arial, sans-serif" font-size="14" font-weight="600">Live</text>

  <text x="84" y="242" fill="#64748B" font-family="Inter, Arial, sans-serif" font-size="15" font-weight="600" letter-spacing="0.08em">CORE WORKFLOW</text>

  <g>
    <rect x="72" y="264" width="262" height="232" rx="26" fill="white" stroke="#DCE7F5"/>
    <circle cx="116" cy="314" r="22" fill="#DBEAFE"/>
    <text x="105" y="321" fill="#1E40AF" font-family="Inter, Arial, sans-serif" font-size="16" font-weight="700">01</text>
    <text x="152" y="320" fill="#0F172A" font-family="Inter, Arial, sans-serif" font-size="26" font-weight="700">Collect</text>
    <text x="104" y="360" fill="#64748B" font-family="Inter, Arial, sans-serif" font-size="16">Pull fresh intelligence from curated AI sources instead of generic feed volume.</text>
    <rect x="104" y="392" width="108" height="34" rx="17" fill="#EFF6FF"/>
    <text x="128" y="414" fill="#1E40AF" font-family="Inter, Arial, sans-serif" font-size="14" font-weight="600">GitHub</text>
    <rect x="220" y="392" width="130" height="34" rx="17" fill="#ECFEFF"/>
    <text x="247" y="414" fill="#0F766E" font-family="Inter, Arial, sans-serif" font-size="14" font-weight="600">Hugging Face</text>
    <rect x="104" y="438" width="92" height="34" rx="17" fill="#FEF3C7"/>
    <text x="128" y="460" fill="#B45309" font-family="Inter, Arial, sans-serif" font-size="14" font-weight="600">News</text>
    <rect x="204" y="438" width="86" height="34" rx="17" fill="#EDE9FE"/>
    <text x="227" y="460" fill="#6D28D9" font-family="Inter, Arial, sans-serif" font-size="14" font-weight="600">arXiv</text>
  </g>

  <g>
    <rect x="364" y="264" width="262" height="232" rx="26" fill="white" stroke="#DCE7F5"/>
    <circle cx="408" cy="314" r="22" fill="#DBEAFE"/>
    <text x="397" y="321" fill="#1E40AF" font-family="Inter, Arial, sans-serif" font-size="16" font-weight="700">02</text>
    <text x="444" y="320" fill="#0F172A" font-family="Inter, Arial, sans-serif" font-size="26" font-weight="700">Rank</text>
    <text x="396" y="360" fill="#64748B" font-family="Inter, Arial, sans-serif" font-size="16">Score items by signal, freshness, relevance, and practical usefulness.</text>
    <circle cx="495" cy="430" r="54" fill="#F8FAFC" stroke="#BFDBFE" stroke-width="10"/>
    <text x="467" y="423" fill="#1E40AF" font-family="Fira Code, monospace" font-size="16" font-weight="700">score</text>
    <text x="470" y="446" fill="#1E40AF" font-family="Fira Code, monospace" font-size="30" font-weight="700">84</text>
    <text x="548" y="414" fill="#0F172A" font-family="Inter, Arial, sans-serif" font-size="15" font-weight="600">Why it matters</text>
    <text x="548" y="438" fill="#64748B" font-family="Inter, Arial, sans-serif" font-size="14">Actionable summary</text>
    <text x="548" y="460" fill="#64748B" font-family="Inter, Arial, sans-serif" font-size="14">Suggested next step</text>
  </g>

  <g>
    <rect x="656" y="264" width="262" height="232" rx="26" fill="white" stroke="#DCE7F5"/>
    <circle cx="700" cy="314" r="22" fill="#DBEAFE"/>
    <text x="689" y="321" fill="#1E40AF" font-family="Inter, Arial, sans-serif" font-size="16" font-weight="700">03</text>
    <text x="736" y="320" fill="#0F172A" font-family="Inter, Arial, sans-serif" font-size="26" font-weight="700">Surface</text>
    <text x="688" y="360" fill="#64748B" font-family="Inter, Arial, sans-serif" font-size="16">Present the highest-value items in a trust-first dashboard instead of dumping a raw feed.</text>
    <rect x="688" y="396" width="198" height="34" rx="17" fill="#F8FAFC" stroke="#E2E8F0"/>
    <text x="710" y="418" fill="#0F172A" font-family="Inter, Arial, sans-serif" font-size="14" font-weight="600">Overview + Top 5</text>
    <rect x="688" y="442" width="198" height="34" rx="17" fill="#F8FAFC" stroke="#E2E8F0"/>
    <text x="710" y="464" fill="#0F172A" font-family="Inter, Arial, sans-serif" font-size="14" font-weight="600">Feed, tables, and trends</text>
  </g>

  <g>
    <rect x="948" y="264" width="260" height="232" rx="26" fill="#FFF7ED" stroke="#FCD9A6"/>
    <circle cx="992" cy="314" r="22" fill="#FDE68A"/>
    <text x="981" y="321" fill="#B45309" font-family="Inter, Arial, sans-serif" font-size="16" font-weight="700">04</text>
    <text x="1028" y="320" fill="#9A3412" font-family="Inter, Arial, sans-serif" font-size="26" font-weight="700">Act</text>
    <text x="980" y="360" fill="#9A3412" font-family="Inter, Arial, sans-serif" font-size="16">Convert awareness into workflow using saved states, digests, and a manual refresh path.</text>
    <rect x="980" y="396" width="90" height="34" rx="17" fill="white"/>
    <text x="1006" y="418" fill="#9A3412" font-family="Inter, Arial, sans-serif" font-size="14" font-weight="600">Save</text>
    <rect x="1078" y="396" width="90" height="34" rx="17" fill="white"/>
    <text x="1100" y="418" fill="#9A3412" font-family="Inter, Arial, sans-serif" font-size="14" font-weight="600">Digest</text>
    <rect x="980" y="442" width="188" height="34" rx="17" fill="white"/>
    <text x="1010" y="464" fill="#9A3412" font-family="Inter, Arial, sans-serif" font-size="14" font-weight="600">Refresh and review</text>
  </g>

  <path d="M334 380H364" stroke="#CBD5E1" stroke-width="4" stroke-linecap="round"/>
  <path d="M626 380H656" stroke="#CBD5E1" stroke-width="4" stroke-linecap="round"/>
  <path d="M918 380H948" stroke="#CBD5E1" stroke-width="4" stroke-linecap="round"/>
  <path d="M352 370L364 380L352 390" stroke="#CBD5E1" stroke-width="4" stroke-linecap="round" stroke-linejoin="round"/>
  <path d="M644 370L656 380L644 390" stroke="#CBD5E1" stroke-width="4" stroke-linecap="round" stroke-linejoin="round"/>
  <path d="M936 370L948 380L936 390" stroke="#CBD5E1" stroke-width="4" stroke-linecap="round" stroke-linejoin="round"/>

  <text x="84" y="554" fill="#64748B" font-family="Inter, Arial, sans-serif" font-size="15" font-weight="600" letter-spacing="0.08em">LIVE UPDATE LOOP</text>
  <rect x="72" y="576" width="1136" height="92" rx="26" fill="white" stroke="#DCE7F5"/>

  <circle cx="144" cy="622" r="18" fill="#DBEAFE"/>
  <text x="136" y="628" fill="#1E40AF" font-family="Inter, Arial, sans-serif" font-size="13" font-weight="700">A</text>
  <text x="176" y="618" fill="#0F172A" font-family="Inter, Arial, sans-serif" font-size="18" font-weight="700">Poll snapshot</text>
  <text x="176" y="642" fill="#64748B" font-family="Inter, Arial, sans-serif" font-size="14">Check `/api/dashboard-meta` for change detection.</text>

  <path d="M404 622H506" stroke="#CBD5E1" stroke-width="4" stroke-linecap="round"/>
  <path d="M494 612L506 622L494 632" stroke="#CBD5E1" stroke-width="4" stroke-linecap="round" stroke-linejoin="round"/>

  <circle cx="560" cy="622" r="18" fill="#DBEAFE"/>
  <text x="552" y="628" fill="#1E40AF" font-family="Inter, Arial, sans-serif" font-size="13" font-weight="700">B</text>
  <text x="592" y="618" fill="#0F172A" font-family="Inter, Arial, sans-serif" font-size="18" font-weight="700">Detect change</text>
  <text x="592" y="642" fill="#64748B" font-family="Inter, Arial, sans-serif" font-size="14">Refresh only when the snapshot id changes.</text>

  <path d="M820 622H922" stroke="#CBD5E1" stroke-width="4" stroke-linecap="round"/>
  <path d="M910 612L922 622L910 632" stroke="#CBD5E1" stroke-width="4" stroke-linecap="round" stroke-linejoin="round"/>

  <circle cx="976" cy="622" r="18" fill="#FDE68A"/>
  <text x="968" y="628" fill="#B45309" font-family="Inter, Arial, sans-serif" font-size="13" font-weight="700">C</text>
  <text x="1008" y="618" fill="#0F172A" font-family="Inter, Arial, sans-serif" font-size="18" font-weight="700">Hot-swap UI</text>
  <text x="1008" y="642" fill="#64748B" font-family="Inter, Arial, sans-serif" font-size="14">Keep tab, search, view mode, and scroll position.</text>

  <text x="72" y="698" fill="#64748B" font-family="Inter, Arial, sans-serif" font-size="14">Open source • MIT licensed • Flask + SQLite + JSON + vanilla JS • Built for real daily AI monitoring</text>
</svg>
